PathFileType	4	(X/Y/Z)	C:/Users/beibeiliu/ov580/test_trc/capture2\sequence.13_training_dense_left.trc
DataRate	CameraRate	NumFrames	NumMarkers	Units	OrigDataRate	OrigDataStartFrame	OrigNumFrames
120	120	19	19	mm	120	277	369
Frame#	Time	ThumbCMC			ThumbMCP			ThumbIP			ThumbTip			IndexMCP			IndexPIP			IndexTip			MiddleMCP			MiddlePIP			MiddleTip			RingMCP			RingPIP			RingTip			PinkyMCP			PinkyPIP			PinkyTip			BackHand1			BackHand2			BackHand3	
		X0	Y0	Z0	X1	Y1	Z1	X2	Y2	Z2	X3	Y3	Z3	X4	Y4	Z4	X5	Y5	Z5	X6	Y6	Z6	X7	Y7	Z7	X8	Y8	Z8	X9	Y9	Z9	X10	Y10	Z10	X11	Y11	Z11	X12	Y12	Z12	X13	Y13	Z13	X14	Y14	Z14	X15	Y15	Z15	X16	Y16	Z16	X17	Y17	Z17	X18	Y18	Z18	
276	2.3	-243.916	48.507	-13.1571	-234.991	76.5797	-31.0004	-225.109	89.1159	-51.3205	-208.734	93.4156	-72.783	-226.403	49.6824	-88.8018	-211.802	68.4938	-100.627	-194.954	92.4581	-87.9774	-206.106	37.2339	-91.6422	-191.152	61.3202	-103.979	-175.705	91.8047	-91.8691	-187.245	27.9502	-81.5405	-171.59	51.0221	-94.2635	-167.966	81.4075	-82.5602	-173.468	21.539	-70.4021	-158.725	41.0362	-81.5114	-157.517	73.3974	-74.6866	-209.216	2.11939	-38.4115	-215.634	-3.85027	-11.8846	-241.318	13.2572	-28.3547	
277	2.30833	-244.774	50.9219	-12.1567	-233.365	75.0495	-31.4911	-225.013	89.9763	-53.2639	-210.497	95.1678	-73.1874	-226.559	49.3408	-89.218	-213.19	72.7685	-101.323	-197.079	97.0826	-87.271	-206.631	35.4676	-89.7508	-191.881	57.8366	-105.24	-176.237	91.6903	-92.8915	-190.572	29.2986	-84.1496	-171.968	50.3449	-96.0459	-170.868	83.3982	-84.3248	-174.277	21.4792	-69.0463	-164.263	44.1935	-84.5428	-157.008	74.1192	-78.6695	-204.98	2.85914	-37.3226	-214.79	-2.32065	-9.65753	-236.433	14.8999	-29.8865	
278	2.31667	-244.634	51.8117	-12.4654	-236.256	79.5177	-32.7487	-228.343	92.5635	-55.9949	-212.747	97.7774	-77.4454	-229.457	49.108	-90.1556	-214.043	72.3468	-101.876	-198.488	96.2224	-89.5808	-210.389	36.5908	-92.1358	-193.083	59.4903	-107.94	-178.473	89.2934	-96.7726	-188.818	27.8544	-83.8921	-173.248	52.4685	-98.1183	-168.346	81.5297	-88.8338	-172.41	19.7703	-69.0292	-164.908	44.6388	-87.3036	-161.675	71.2393	-82.7061	-203.458	3.84259	-37.5729	-214.649	-2.67903	-9.30018	-237.988	16.3028	-30.0762	
279	2.325	-244.239	52.4815	-15.1144	-232.713	75.8016	-32.9329	-229.357	94.3338	-57.9147	-214.429	97.8506	-77.7788	-227.68	47.4996	-90.9515	-216.766	71.1608	-103.615	-198.419	95.9313	-89.2347	-207.298	36.3507	-94.393	-193.224	59.4662	-109.097	-179.122	89.3856	-100.614	-188.696	28.5149	-86.8884	-174.294	53.6536	-100.832	-171.19	82.9604	-90.7871	-172.838	21.6328	-71.3525	-161.639	39.6401	-88.1305	-157.579	71.1951	-83.8446	-207.233	6.06856	-41.465	-209.78	-3.56166	-11.3806	-237.256	13.0613	-26.9304	
280	2.33333	-243.508	51.7458	-14.1626	-234.318	77.3994	-34.8145	-226.638	88.4277	-58.4349	-216.629	97.4255	-77.2943	-227.927	45.2044	-88.9126	-212.869	66.308	-104.481	-199.058	92.0253	-94.3976	-211.047	35.86	-94.1155	-195.797	54.8703	-110.115	-183.032	89.5695	-104.098	-190.329	26.17	-85.0964	-177.627	53.828	-103.229	-168.787	82.624	-92.4088	-173.703	20.6155	-72.5796	-161.836	41.8371	-90.2293	-159.626	71.6257	-86.6512	-204.706	3.78001	-40.2787	-207.506	-3.89117	-8.14586	-233.703	12.5344	-26.2593	
281	2.34167	-239.222	49.7891	-17.1381	-234.122	77.5783	-37.3388	-227.248	89.5579	-56.7037	-213.317	92.5193	-78.442	-226.386	44.6945	-88.9277	-213.717	70.3316	-106.026	-198.168	94.078	-93.1563	-208.713	34.4749	-96.9024	-193.27	57.8611	-111.683	-178.553	85.1602	-104.58	-189.905	27.5679	-89.724	-174.566	49.1991	-103.513	-172.446	82.3651	-93.9309	-171.007	18.7446	-71.1704	-164.393	42.3637	-92.0218	-159.915	73.0956	-86.0581	-203.56	5.07295	-41.3227	-207.292	-2.6182	-10.3484	-232.486	13.5743	-28.1066	
282	2.35	-241.319	52.1199	-20.0471	-231.468	75.2601	-34.3582	-227.985	91.0135	-56.839	-211.781	95.1773	-81.62	-225.914	45.9681	-92.8578	-213.94	68.2647	-105.632	-195.884	94.2106	-91.5667	-203.955	33.0986	-96.4845	-194.075	56.3246	-113.152	-178.517	83.7118	-106.56	-189.704	26.8242	-90.4505	-175.93	50.3497	-104.574	-165.927	81.6366	-92.5747	-173.049	19.7051	-75.4626	-159.642	41.351	-92.4286	-159.186	70.9988	-88.0381	-204.762	2.45689	-42.285	-204.377	-3.08655	-10.8911	-235.738	13.1995	-30.1373	
283	2.35833	-238.27	49.9471	-18.0691	-230.138	75.8103	-38.8501	-224.194	89.0105	-59.4074	-211.173	94.4187	-80.4716	-225.602	44.4837	-89.8992	-212.031	65.9005	-105.792	-193.54	92.3008	-92.4263	-205.725	33.6858	-96.4274	-190.592	53.3896	-111.807	-175.645	83.4436	-106.616	-185.351	24.5483	-88.0613	-171.042	48.9563	-103.563	-165.578	79.3004	-93.1321	-170.17	18.8128	-74.4102	-157.118	37.6361	-90.6196	-155.924	67.9799	-91.1633	-200.173	0.482861	-39.4871	-209.424	-1.07087	-10.9533	-235.091	13.6582	-30.8085	
284	2.36667	-235.763	51.1038	-16.8597	-229.079	77.205	-34.9825	-223.19	90.8468	-58.6215	-205.5	90.3644	-79.9882	-223.155	43.7631	-88.3168	-205.065	69.8634	-105.336	-192.118	93.8628	-92.4617	-204.929	32.6611	-93.5447	-190.814	52.8815	-112.161	-175.278	84.7232	-106.63	-186.625	26.6053	-88.3068	-171.808	47.1862	-104.062	-165.614	78.3251	-95.3427	-172.745	19.4699	-75.7175	-158.991	34.9572	-91.2942	-153.45	70.209	-88.3662	-202.595	4.64733	-41.4506	-205.368	-4.39588	-8.56537	-234.863	16.2801	-29.1855	
285	2.375	-233.937	53.0932	-18.4242	-227.609	80.6639	-36.1706	-217.25	90.9358	-57.6234	-204.269	96.584	-79.6342	-218.891	47.5157	-91.771	-206.254	73.0531	-106.135	-188.365	93.0178	-94.5014	-201.008	33.8934	-96.3443	-186.988	57.1544	-112.341	-170.818	85.2145	-105.501	-185.537	24.3779	-85.8426	-171.539	46.9502	-104.121	-158.62	76.4737	-94.1092	-172.298	18.0321	-74.3545	-154.947	35.506	-91.3093	-150.5	64.3402	-89.6532	-203.385	2.66504	-39.6286	-206.29	-1.32946	-13.1986	-233.207	16.8884	-27.1331	
286	2.38333	-230.089	56.6599	-20.7028	-220.336	82.0388	-33.8874	-210.204	94.1638	-60.0714	-194.932	93.2914	-79.8232	-216.556	51.9063	-92.8942	-200.337	72.2169	-105.644	-179.618	89.7436	-94.4821	-200.991	33.8241	-92.7991	-183.314	53.1825	-111.377	-161.806	82.7859	-102.865	-186.605	26.3405	-90.5625	-165.132	45.0692	-104.163	-152.805	74.559	-92.9962	-169.358	14.0705	-72.7284	-155.616	30.4056	-91.0017	-145.98	61.9694	-90.1022	-202.372	5.26679	-42.4462	-212.714	1.57164	-13.0473	-234.382	22.204	-27.7359	
287	2.39167	-227.236	60.8244	-17.8738	-210.827	82.1262	-37.4407	-200.992	97.2803	-59.819	-184.058	95.1395	-80.4652	-212.539	56.0868	-93.092	-192.505	71.6333	-105.369	-169.538	93.0173	-90.0955	-198.786	35.6995	-93.4773	-176.611	57.206	-112.586	-155.143	79.5445	-102.424	-183.286	25.0806	-87.7767	-164.307	41.2559	-104.141	-146.909	69.8993	-94.9421	-169.525	12.2009	-71.8102	-152.56	27.9505	-89.8174	-142.533	54.47	-89.2029	-204.41	4.19946	-43.8029	-213.845	0.196189	-10.8509	-233.759	26.1894	-29.7356	
288	2.4	-220.109	63.7938	-18.2365	-203.117	88.6295	-33.7952	-189.443	97.7639	-58.1825	-175.312	95.945	-74.3853	-205.457	55.3636	-90.781	-185.339	73.083	-105.058	-160.427	88.6812	-91.4219	-191.801	37.0725	-95.8612	-169.844	52.5139	-110.393	-144.735	77.9879	-102.084	-178.796	21.2689	-86.6982	-160.877	39.5469	-102.34	-142.041	63.5874	-95.157	-168.283	10.3428	-72.2808	-148.104	26.3442	-89.0064	-133.704	52.8544	-88.9567	-205.923	5.36356	-39.9458	-214.285	4.74189	-12.1498	-229.223	29.4951	-33.5103	
289	2.40833	-215.977	67.8168	-16.2711	-194.414	88.8613	-31.7485	-178.965	98.0916	-56.6642	-165.314	99.5485	-73.9075	-202.185	59.7904	-87.4693	-174.174	72.395	-102.021	-150.653	84.2872	-87.928	-189.808	39.0408	-91.8842	-166.536	50.3154	-110.15	-135.09	73.7932	-100.623	-177.572	25.7418	-88.891	-155.128	39.9036	-102.157	-130.274	60.0258	-91.8716	-166.846	10.8696	-70.958	-148.43	20.7965	-87.7819	-128.115	48.3518	-87.8326	-203.684	9.97755	-43.1066	-216.227	5.3087	-14.2075	-227.64	30.9549	-31.5436	
290	2.41667	-210.076	71.8733	-16.0675	-186.254	90.4427	-33.4765	-169.866	99.1046	-55.8703	-154.35	94.41	-74.1677	-196.481	62.5381	-86.5886	-166.486	73.0616	-101.185	-144.083	83.3961	-87.989	-183.928	41.8602	-95.4372	-158.928	51.6124	-109.377	-131.779	72.2369	-101.759	-173.844	27.054	-88.2993	-149.044	37.839	-100.692	-124.861	58.0934	-90.5885	-166.529	9.88482	-69.9382	-140.42	21.1388	-86.7751	-121.706	40.7499	-84.4867	-207.676	13.7308	-40.6737	-216.112	8.52782	-15.4975	-222.445	36.7551	-34.3731	
291	2.425	-205.527	74.8982	-17.9791	-179.039	86.3919	-31.9452	-162.76	97.1211	-52.2082	-148.624	96.3212	-67.6417	-189.259	68.1684	-90.57	-161.035	73.0287	-100.193	-136.516	80.946	-84.9898	-183.649	44.7646	-93.7409	-156.919	50.7388	-108.743	-127.958	69.0093	-100.313	-171.714	25.363	-85.928	-146.044	33.0992	-97.9367	-120.132	54.8428	-88.8013	-162.385	9.32993	-74.9548	-142.501	19.5586	-85.2786	-118.711	36.2547	-84.0417	-202.136	12.4031	-42.8204	-214.805	8.68251	-15.0867	-223.807	41.1699	-32.6059	
292	2.43333	-200.785	77.3078	-17.848	-174.527	87.769	-30.4859	-158.075	97.9678	-48.5221	-142.049	94.4777	-69.5967	-184.104	65.827	-88.1256	-159.467	74.2491	-99.1496	-132.278	80.2936	-83.1006	-178.209	43.908	-92.6733	-151.308	56.2613	-108.736	-124.137	66.6633	-100.252	-170.305	28.8663	-87.4735	-139.868	37.6373	-98.8692	-118.034	50.1812	-88.1489	-164.176	9.22746	-70.7691	-141.239	17.6997	-85.4655	-119.127	36.0346	-85.2056	-202.977	14.6821	-41.3969	-213.798	17.8533	-17.6313	-221.306	44.9445	-32.2339	
293	2.44167	-197.322	76.3064	-12.5424	-169.973	90.7921	-25.2863	-150.528	97.8746	-50.6407	-137.775	95.5658	-64.8185	-184.177	70.2942	-84.7965	-154.481	76.9904	-98.7914	-129.548	82.9656	-85.0975	-177.356	50.4637	-95.9589	-150.023	54.7229	-107.466	-118.846	63.0208	-97.9958	-171.699	30.9311	-85.0137	-145.237	37.8165	-98.7496	-115.962	49.3091	-88.7969	-165.622	16.2959	-72.4658	-142.003	23.1811	-86.9683	-117.375	38.645	-85.6273	-201.832	17.5084	-45.4368	-214.138	18.0748	-19.4563	-217.191	49.988	-32.8218	
294	2.45	-190.999	81.6753	-13.9979	-164.518	90.2652	-28.3006	-147.451	96.8713	-45.9336	-132.777	94.5524	-64.2424	-182.032	75.1885	-83.9734	-152.444	78.2864	-98.6214	-123.614	82.5049	-81.5858	-174.717	50.2569	-93.5535	-150.366	55.4028	-107.788	-113.822	65.9772	-98.4941	-169.989	31.9679	-86.2803	-140.352	38.0038	-99.7357	-114.326	48.413	-89.5895	-163.711	15.1928	-78.1054	-138.964	22.3904	-88.112	-113.594	38.2724	-84.3969	-201.956	23.1417	-45.5041	-214.591	18.1956	-14.2483	-215.807	52.1113	-28.306	
